<svg xmlns="http://www.w3.org/2000/svg" version="1.1" xmlns:xlink="http://www.w3.org/1999/xlink" xmlns:svgjs="http://svgjs.dev/svgjs" width="1920" height="640" viewBox="0 0 2400 800" opacity="0.77"><g fill="#378fd7ff" transform="matrix(1,0,0,1,10.8233642578125,64.01620674133301)"><path d="M-10,10C17.083333333333336,10.416666666666666,67.91666666666667,15.333333333333332,120,12C172.08333333333331,8.666666666666668,190,-6.833333333333333,240,-6C290,-5.166666666666667,310,15.166666666666666,360,16C410,16.833333333333332,430,-2.833333333333333,480,-2C530,-1.1666666666666667,550,19.166666666666668,600,20C650,20.833333333333332,670,1.1666666666666667,720,2C770,2.833333333333333,790,23.166666666666668,840,24C890,24.833333333333332,910,5.166666666666667,960,6C1010,6.833333333333333,1030,27.166666666666668,1080,28C1130,28.833333333333332,1150,9.166666666666666,1200,10C1250,10.833333333333334,1270,31.166666666666668,1320,32C1370,32.833333333333336,1390,13.166666666666666,1440,14C1490,14.833333333333334,1510,35.166666666666664,1560,36C1610,36.833333333333336,1630,17.166666666666668,1680,18C1730,18.833333333333332,1750,39.166666666666664,1800,40C1850,40.833333333333336,1870,21.166666666666668,1920,22C1970,22.833333333333332,1990,43.166666666666664,2040,44C2090,44.833333333333336,2110,25.166666666666668,2160,26C2210,26.833333333333332,2230,47.166666666666664,2280,48C2330,48.833333333333336,2322.9166666666665,-43.33333333333333,2400,30C2477.0833333333335,103.33333333333333,3254.1666666666665,218.75,2650,400C2045.8333333333335,581.25,156.25,795.8333333333334,-500,900" transform="matrix(1,0,0,1,0,34)" opacity="0.05"></path><path d="M-10,10C17.083333333333336,10.416666666666666,67.91666666666667,15.333333333333332,120,12C172.08333333333331,8.666666666666668,190,-6.833333333333333,240,-6C290,-5.166666666666667,310,15.166666666666666,360,16C410,16.833333333333332,430,-2.833333333333333,480,-2C530,-1.1666666666666667,550,19.166666666666668,600,20C650,20.833333333333332,670,1.1666666666666667,720,2C770,2.833333333333333,790,23.166666666666668,840,24C890,24.833333333333332,910,5.166666666666667,960,6C1010,6.833333333333333,1030,27.166666666666668,1080,28C1130,28.833333333333332,1150,9.166666666666666,1200,10C1250,10.833333333333334,1270,31.166666666666668,1320,32C1370,32.833333333333336,1390,13.166666666666666,1440,14C1490,14.833333333333334,1510,35.166666666666664,1560,36C1610,36.833333333333336,1630,17.166666666666668,1680,18C1730,18.833333333333332,1750,39.166666666666664,1800,40C1850,40.833333333333336,1870,21.166666666666668,1920,22C1970,22.833333333333332,1990,43.166666666666664,2040,44C2090,44.833333333333336,2110,25.166666666666668,2160,26C2210,26.833333333333332,2230,47.166666666666664,2280,48C2330,48.833333333333336,2322.9166666666665,-43.33333333333333,2400,30C2477.0833333333335,103.33333333333333,3254.1666666666665,218.75,2650,400C2045.8333333333335,581.25,156.25,795.8333333333334,-500,900" transform="matrix(1,0,0,1,0,68)" opacity="0.11"></path><path d="M-10,10C17.083333333333336,10.416666666666666,67.91666666666667,15.333333333333332,120,12C172.08333333333331,8.666666666666668,190,-6.833333333333333,240,-6C290,-5.166666666666667,310,15.166666666666666,360,16C410,16.833333333333332,430,-2.833333333333333,480,-2C530,-1.1666666666666667,550,19.166666666666668,600,20C650,20.833333333333332,670,1.1666666666666667,720,2C770,2.833333333333333,790,23.166666666666668,840,24C890,24.833333333333332,910,5.166666666666667,960,6C1010,6.833333333333333,1030,27.166666666666668,1080,28C1130,28.833333333333332,1150,9.166666666666666,1200,10C1250,10.833333333333334,1270,31.166666666666668,1320,32C1370,32.833333333333336,1390,13.166666666666666,1440,14C1490,14.833333333333334,1510,35.166666666666664,1560,36C1610,36.833333333333336,1630,17.166666666666668,1680,18C1730,18.833333333333332,1750,39.166666666666664,1800,40C1850,40.833333333333336,1870,21.166666666666668,1920,22C1970,22.833333333333332,1990,43.166666666666664,2040,44C2090,44.833333333333336,2110,25.166666666666668,2160,26C2210,26.833333333333332,2230,47.166666666666664,2280,48C2330,48.833333333333336,2322.9166666666665,-43.33333333333333,2400,30C2477.0833333333335,103.33333333333333,3254.1666666666665,218.75,2650,400C2045.8333333333335,581.25,156.25,795.8333333333334,-500,900" transform="matrix(1,0,0,1,0,102)" opacity="0.18"></path><path d="M-10,10C17.083333333333336,10.416666666666666,67.91666666666667,15.333333333333332,120,12C172.08333333333331,8.666666666666668,190,-6.833333333333333,240,-6C290,-5.166666666666667,310,15.166666666666666,360,16C410,16.833333333333332,430,-2.833333333333333,480,-2C530,-1.1666666666666667,550,19.166666666666668,600,20C650,20.833333333333332,670,1.1666666666666667,720,2C770,2.833333333333333,790,23.166666666666668,840,24C890,24.833333333333332,910,5.166666666666667,960,6C1010,6.833333333333333,1030,27.166666666666668,1080,28C1130,28.833333333333332,1150,9.166666666666666,1200,10C1250,10.833333333333334,1270,31.166666666666668,1320,32C1370,32.833333333333336,1390,13.166666666666666,1440,14C1490,14.833333333333334,1510,35.166666666666664,1560,36C1610,36.833333333333336,1630,17.166666666666668,1680,18C1730,18.833333333333332,1750,39.166666666666664,1800,40C1850,40.833333333333336,1870,21.166666666666668,1920,22C1970,22.833333333333332,1990,43.166666666666664,2040,44C2090,44.833333333333336,2110,25.166666666666668,2160,26C2210,26.833333333333332,2230,47.166666666666664,2280,48C2330,48.833333333333336,2322.9166666666665,-43.33333333333333,2400,30C2477.0833333333335,103.33333333333333,3254.1666666666665,218.75,2650,400C2045.8333333333335,581.25,156.25,795.8333333333334,-500,900" transform="matrix(1,0,0,1,0,136)" opacity="0.24"></path><path d="M-10,10C17.083333333333336,10.416666666666666,67.91666666666667,15.333333333333332,120,12C172.08333333333331,8.666666666666668,190,-6.833333333333333,240,-6C290,-5.166666666666667,310,15.166666666666666,360,16C410,16.833333333333332,430,-2.833333333333333,480,-2C530,-1.1666666666666667,550,19.166666666666668,600,20C650,20.833333333333332,670,1.1666666666666667,720,2C770,2.833333333333333,790,23.166666666666668,840,24C890,24.833333333333332,910,5.166666666666667,960,6C1010,6.833333333333333,1030,27.166666666666668,1080,28C1130,28.833333333333332,1150,9.166666666666666,1200,10C1250,10.833333333333334,1270,31.166666666666668,1320,32C1370,32.833333333333336,1390,13.166666666666666,1440,14C1490,14.833333333333334,1510,35.166666666666664,1560,36C1610,36.833333333333336,1630,17.166666666666668,1680,18C1730,18.833333333333332,1750,39.166666666666664,1800,40C1850,40.833333333333336,1870,21.166666666666668,1920,22C1970,22.833333333333332,1990,43.166666666666664,2040,44C2090,44.833333333333336,2110,25.166666666666668,2160,26C2210,26.833333333333332,2230,47.166666666666664,2280,48C2330,48.833333333333336,2322.9166666666665,-43.33333333333333,2400,30C2477.0833333333335,103.33333333333333,3254.1666666666665,218.75,2650,400C2045.8333333333335,581.25,156.25,795.8333333333334,-500,900" transform="matrix(1,0,0,1,0,170)" opacity="0.30"></path><path d="M-10,10C17.083333333333336,10.416666666666666,67.91666666666667,15.333333333333332,120,12C172.08333333333331,8.666666666666668,190,-6.833333333333333,240,-6C290,-5.166666666666667,310,15.166666666666666,360,16C410,16.833333333333332,430,-2.833333333333333,480,-2C530,-1.1666666666666667,550,19.166666666666668,600,20C650,20.833333333333332,670,1.1666666666666667,720,2C770,2.833333333333333,790,23.166666666666668,840,24C890,24.833333333333332,910,5.166666666666667,960,6C1010,6.833333333333333,1030,27.166666666666668,1080,28C1130,28.833333333333332,1150,9.166666666666666,1200,10C1250,10.833333333333334,1270,31.166666666666668,1320,32C1370,32.833333333333336,1390,13.166666666666666,1440,14C1490,14.833333333333334,1510,35.166666666666664,1560,36C1610,36.833333333333336,1630,17.166666666666668,1680,18C1730,18.833333333333332,1750,39.166666666666664,1800,40C1850,40.833333333333336,1870,21.166666666666668,1920,22C1970,22.833333333333332,1990,43.166666666666664,2040,44C2090,44.833333333333336,2110,25.166666666666668,2160,26C2210,26.833333333333332,2230,47.166666666666664,2280,48C2330,48.833333333333336,2322.9166666666665,-43.33333333333333,2400,30C2477.0833333333335,103.33333333333333,3254.1666666666665,218.75,2650,400C2045.8333333333335,581.25,156.25,795.8333333333334,-500,900" transform="matrix(1,0,0,1,0,204)" opacity="0.37"></path><path d="M-10,10C17.083333333333336,10.416666666666666,67.91666666666667,15.333333333333332,120,12C172.08333333333331,8.666666666666668,190,-6.833333333333333,240,-6C290,-5.166666666666667,310,15.166666666666666,360,16C410,16.833333333333332,430,-2.833333333333333,480,-2C530,-1.1666666666666667,550,19.166666666666668,600,20C650,20.833333333333332,670,1.1666666666666667,720,2C770,2.833333333333333,790,23.166666666666668,840,24C890,24.833333333333332,910,5.166666666666667,960,6C1010,6.833333333333333,1030,27.166666666666668,1080,28C1130,28.833333333333332,1150,9.166666666666666,1200,10C1250,10.833333333333334,1270,31.166666666666668,1320,32C1370,32.833333333333336,1390,13.166666666666666,1440,14C1490,14.833333333333334,1510,35.166666666666664,1560,36C1610,36.833333333333336,1630,17.166666666666668,1680,18C1730,18.833333333333332,1750,39.166666666666664,1800,40C1850,40.833333333333336,1870,21.166666666666668,1920,22C1970,22.833333333333332,1990,43.166666666666664,2040,44C2090,44.833333333333336,2110,25.166666666666668,2160,26C2210,26.833333333333332,2230,47.166666666666664,2280,48C2330,48.833333333333336,2322.9166666666665,-43.33333333333333,2400,30C2477.0833333333335,103.33333333333333,3254.1666666666665,218.75,2650,400C2045.8333333333335,581.25,156.25,795.8333333333334,-500,900" transform="matrix(1,0,0,1,0,238)" opacity="0.43"></path><path d="M-10,10C17.083333333333336,10.416666666666666,67.91666666666667,15.333333333333332,120,12C172.08333333333331,8.666666666666668,190,-6.833333333333333,240,-6C290,-5.166666666666667,310,15.166666666666666,360,16C410,16.833333333333332,430,-2.833333333333333,480,-2C530,-1.1666666666666667,550,19.166666666666668,600,20C650,20.833333333333332,670,1.1666666666666667,720,2C770,2.833333333333333,790,23.166666666666668,840,24C890,24.833333333333332,910,5.166666666666667,960,6C1010,6.833333333333333,1030,27.166666666666668,1080,28C1130,28.833333333333332,1150,9.166666666666666,1200,10C1250,10.833333333333334,1270,31.166666666666668,1320,32C1370,32.833333333333336,1390,13.166666666666666,1440,14C1490,14.833333333333334,1510,35.166666666666664,1560,36C1610,36.833333333333336,1630,17.166666666666668,1680,18C1730,18.833333333333332,1750,39.166666666666664,1800,40C1850,40.833333333333336,1870,21.166666666666668,1920,22C1970,22.833333333333332,1990,43.166666666666664,2040,44C2090,44.833333333333336,2110,25.166666666666668,2160,26C2210,26.833333333333332,2230,47.166666666666664,2280,48C2330,48.833333333333336,2322.9166666666665,-43.33333333333333,2400,30C2477.0833333333335,103.33333333333333,3254.1666666666665,218.75,2650,400C2045.8333333333335,581.25,156.25,795.8333333333334,-500,900" transform="matrix(1,0,0,1,0,272)" opacity="0.49"></path><path d="M-10,10C17.083333333333336,10.416666666666666,67.91666666666667,15.333333333333332,120,12C172.08333333333331,8.666666666666668,190,-6.833333333333333,240,-6C290,-5.166666666666667,310,15.166666666666666,360,16C410,16.833333333333332,430,-2.833333333333333,480,-2C530,-1.1666666666666667,550,19.166666666666668,600,20C650,20.833333333333332,670,1.1666666666666667,720,2C770,2.833333333333333,790,23.166666666666668,840,24C890,24.833333333333332,910,5.166666666666667,960,6C1010,6.833333333333333,1030,27.166666666666668,1080,28C1130,28.833333333333332,1150,9.166666666666666,1200,10C1250,10.833333333333334,1270,31.166666666666668,1320,32C1370,32.833333333333336,1390,13.166666666666666,1440,14C1490,14.833333333333334,1510,35.166666666666664,1560,36C1610,36.833333333333336,1630,17.166666666666668,1680,18C1730,18.833333333333332,1750,39.166666666666664,1800,40C1850,40.833333333333336,1870,21.166666666666668,1920,22C1970,22.833333333333332,1990,43.166666666666664,2040,44C2090,44.833333333333336,2110,25.166666666666668,2160,26C2210,26.833333333333332,2230,47.166666666666664,2280,48C2330,48.833333333333336,2322.9166666666665,-43.33333333333333,2400,30C2477.0833333333335,103.33333333333333,3254.1666666666665,218.75,2650,400C2045.8333333333335,581.25,156.25,795.8333333333334,-500,900" transform="matrix(1,0,0,1,0,306)" opacity="0.56"></path><path d="M-10,10C17.083333333333336,10.416666666666666,67.91666666666667,15.333333333333332,120,12C172.08333333333331,8.666666666666668,190,-6.833333333333333,240,-6C290,-5.166666666666667,310,15.166666666666666,360,16C410,16.833333333333332,430,-2.833333333333333,480,-2C530,-1.1666666666666667,550,19.166666666666668,600,20C650,20.833333333333332,670,1.1666666666666667,720,2C770,2.833333333333333,790,23.166666666666668,840,24C890,24.833333333333332,910,5.166666666666667,960,6C1010,6.833333333333333,1030,27.166666666666668,1080,28C1130,28.833333333333332,1150,9.166666666666666,1200,10C1250,10.833333333333334,1270,31.166666666666668,1320,32C1370,32.833333333333336,1390,13.166666666666666,1440,14C1490,14.833333333333334,1510,35.166666666666664,1560,36C1610,36.833333333333336,1630,17.166666666666668,1680,18C1730,18.833333333333332,1750,39.166666666666664,1800,40C1850,40.833333333333336,1870,21.166666666666668,1920,22C1970,22.833333333333332,1990,43.166666666666664,2040,44C2090,44.833333333333336,2110,25.166666666666668,2160,26C2210,26.833333333333332,2230,47.166666666666664,2280,48C2330,48.833333333333336,2322.9166666666665,-43.33333333333333,2400,30C2477.0833333333335,103.33333333333333,3254.1666666666665,218.75,2650,400C2045.8333333333335,581.25,156.25,795.8333333333334,-500,900" transform="matrix(1,0,0,1,0,340)" opacity="0.62"></path><path d="M-10,10C17.083333333333336,10.416666666666666,67.91666666666667,15.333333333333332,120,12C172.08333333333331,8.666666666666668,190,-6.833333333333333,240,-6C290,-5.166666666666667,310,15.166666666666666,360,16C410,16.833333333333332,430,-2.833333333333333,480,-2C530,-1.1666666666666667,550,19.166666666666668,600,20C650,20.833333333333332,670,1.1666666666666667,720,2C770,2.833333333333333,790,23.166666666666668,840,24C890,24.833333333333332,910,5.166666666666667,960,6C1010,6.833333333333333,1030,27.166666666666668,1080,28C1130,28.833333333333332,1150,9.166666666666666,1200,10C1250,10.833333333333334,1270,31.166666666666668,1320,32C1370,32.833333333333336,1390,13.166666666666666,1440,14C1490,14.833333333333334,1510,35.166666666666664,1560,36C1610,36.833333333333336,1630,17.166666666666668,1680,18C1730,18.833333333333332,1750,39.166666666666664,1800,40C1850,40.833333333333336,1870,21.166666666666668,1920,22C1970,22.833333333333332,1990,43.166666666666664,2040,44C2090,44.833333333333336,2110,25.166666666666668,2160,26C2210,26.833333333333332,2230,47.166666666666664,2280,48C2330,48.833333333333336,2322.9166666666665,-43.33333333333333,2400,30C2477.0833333333335,103.33333333333333,3254.1666666666665,218.75,2650,400C2045.8333333333335,581.25,156.25,795.8333333333334,-500,900" transform="matrix(1,0,0,1,0,374)" opacity="0.68"></path><path d="M-10,10C17.083333333333336,10.416666666666666,67.91666666666667,15.333333333333332,120,12C172.08333333333331,8.666666666666668,190,-6.833333333333333,240,-6C290,-5.166666666666667,310,15.166666666666666,360,16C410,16.833333333333332,430,-2.833333333333333,480,-2C530,-1.1666666666666667,550,19.166666666666668,600,20C650,20.833333333333332,670,1.1666666666666667,720,2C770,2.833333333333333,790,23.166666666666668,840,24C890,24.833333333333332,910,5.166666666666667,960,6C1010,6.833333333333333,1030,27.166666666666668,1080,28C1130,28.833333333333332,1150,9.166666666666666,1200,10C1250,10.833333333333334,1270,31.166666666666668,1320,32C1370,32.833333333333336,1390,13.166666666666666,1440,14C1490,14.833333333333334,1510,35.166666666666664,1560,36C1610,36.833333333333336,1630,17.166666666666668,1680,18C1730,18.833333333333332,1750,39.166666666666664,1800,40C1850,40.833333333333336,1870,21.166666666666668,1920,22C1970,22.833333333333332,1990,43.166666666666664,2040,44C2090,44.833333333333336,2110,25.166666666666668,2160,26C2210,26.833333333333332,2230,47.166666666666664,2280,48C2330,48.833333333333336,2322.9166666666665,-43.33333333333333,2400,30C2477.0833333333335,103.33333333333333,3254.1666666666665,218.75,2650,400C2045.8333333333335,581.25,156.25,795.8333333333334,-500,900" transform="matrix(1,0,0,1,0,408)" opacity="0.75"></path><path d="M-10,10C17.083333333333336,10.416666666666666,67.91666666666667,15.333333333333332,120,12C172.08333333333331,8.666666666666668,190,-6.833333333333333,240,-6C290,-5.166666666666667,310,15.166666666666666,360,16C410,16.833333333333332,430,-2.833333333333333,480,-2C530,-1.1666666666666667,550,19.166666666666668,600,20C650,20.833333333333332,670,1.1666666666666667,720,2C770,2.833333333333333,790,23.166666666666668,840,24C890,24.833333333333332,910,5.166666666666667,960,6C1010,6.833333333333333,1030,27.166666666666668,1080,28C1130,28.833333333333332,1150,9.166666666666666,1200,10C1250,10.833333333333334,1270,31.166666666666668,1320,32C1370,32.833333333333336,1390,13.166666666666666,1440,14C1490,14.833333333333334,1510,35.166666666666664,1560,36C1610,36.833333333333336,1630,17.166666666666668,1680,18C1730,18.833333333333332,1750,39.166666666666664,1800,40C1850,40.833333333333336,1870,21.166666666666668,1920,22C1970,22.833333333333332,1990,43.166666666666664,2040,44C2090,44.833333333333336,2110,25.166666666666668,2160,26C2210,26.833333333333332,2230,47.166666666666664,2280,48C2330,48.833333333333336,2322.9166666666665,-43.33333333333333,2400,30C2477.0833333333335,103.33333333333333,3254.1666666666665,218.75,2650,400C2045.8333333333335,581.25,156.25,795.8333333333334,-500,900" transform="matrix(1,0,0,1,0,442)" opacity="0.81"></path><path d="M-10,10C17.083333333333336,10.416666666666666,67.91666666666667,15.333333333333332,120,12C172.08333333333331,8.666666666666668,190,-6.833333333333333,240,-6C290,-5.166666666666667,310,15.166666666666666,360,16C410,16.833333333333332,430,-2.833333333333333,480,-2C530,-1.1666666666666667,550,19.166666666666668,600,20C650,20.833333333333332,670,1.1666666666666667,720,2C770,2.833333333333333,790,23.166666666666668,840,24C890,24.833333333333332,910,5.166666666666667,960,6C1010,6.833333333333333,1030,27.166666666666668,1080,28C1130,28.833333333333332,1150,9.166666666666666,1200,10C1250,10.833333333333334,1270,31.166666666666668,1320,32C1370,32.833333333333336,1390,13.166666666666666,1440,14C1490,14.833333333333334,1510,35.166666666666664,1560,36C1610,36.833333333333336,1630,17.166666666666668,1680,18C1730,18.833333333333332,1750,39.166666666666664,1800,40C1850,40.833333333333336,1870,21.166666666666668,1920,22C1970,22.833333333333332,1990,43.166666666666664,2040,44C2090,44.833333333333336,2110,25.166666666666668,2160,26C2210,26.833333333333332,2230,47.166666666666664,2280,48C2330,48.833333333333336,2322.9166666666665,-43.33333333333333,2400,30C2477.0833333333335,103.33333333333333,3254.1666666666665,218.75,2650,400C2045.8333333333335,581.25,156.25,795.8333333333334,-500,900" transform="matrix(1,0,0,1,0,476)" opacity="0.87"></path><path d="M-10,10C17.083333333333336,10.416666666666666,67.91666666666667,15.333333333333332,120,12C172.08333333333331,8.666666666666668,190,-6.833333333333333,240,-6C290,-5.166666666666667,310,15.166666666666666,360,16C410,16.833333333333332,430,-2.833333333333333,480,-2C530,-1.1666666666666667,550,19.166666666666668,600,20C650,20.833333333333332,670,1.1666666666666667,720,2C770,2.833333333333333,790,23.166666666666668,840,24C890,24.833333333333332,910,5.166666666666667,960,6C1010,6.833333333333333,1030,27.166666666666668,1080,28C1130,28.833333333333332,1150,9.166666666666666,1200,10C1250,10.833333333333334,1270,31.166666666666668,1320,32C1370,32.833333333333336,1390,13.166666666666666,1440,14C1490,14.833333333333334,1510,35.166666666666664,1560,36C1610,36.833333333333336,1630,17.166666666666668,1680,18C1730,18.833333333333332,1750,39.166666666666664,1800,40C1850,40.833333333333336,1870,21.166666666666668,1920,22C1970,22.833333333333332,1990,43.166666666666664,2040,44C2090,44.833333333333336,2110,25.166666666666668,2160,26C2210,26.833333333333332,2230,47.166666666666664,2280,48C2330,48.833333333333336,2322.9166666666665,-43.33333333333333,2400,30C2477.0833333333335,103.33333333333333,3254.1666666666665,218.75,2650,400C2045.8333333333335,581.25,156.25,795.8333333333334,-500,900" transform="matrix(1,0,0,1,0,510)" opacity="0.94"></path><path d="M-10,10C17.083333333333336,10.416666666666666,67.91666666666667,15.333333333333332,120,12C172.08333333333331,8.666666666666668,190,-6.833333333333333,240,-6C290,-5.166666666666667,310,15.166666666666666,360,16C410,16.833333333333332,430,-2.833333333333333,480,-2C530,-1.1666666666666667,550,19.166666666666668,600,20C650,20.833333333333332,670,1.1666666666666667,720,2C770,2.833333333333333,790,23.166666666666668,840,24C890,24.833333333333332,910,5.166666666666667,960,6C1010,6.833333333333333,1030,27.166666666666668,1080,28C1130,28.833333333333332,1150,9.166666666666666,1200,10C1250,10.833333333333334,1270,31.166666666666668,1320,32C1370,32.833333333333336,1390,13.166666666666666,1440,14C1490,14.833333333333334,1510,35.166666666666664,1560,36C1610,36.833333333333336,1630,17.166666666666668,1680,18C1730,18.833333333333332,1750,39.166666666666664,1800,40C1850,40.833333333333336,1870,21.166666666666668,1920,22C1970,22.833333333333332,1990,43.166666666666664,2040,44C2090,44.833333333333336,2110,25.166666666666668,2160,26C2210,26.833333333333332,2230,47.166666666666664,2280,48C2330,48.833333333333336,2322.9166666666665,-43.33333333333333,2400,30C2477.0833333333335,103.33333333333333,3254.1666666666665,218.75,2650,400C2045.8333333333335,581.25,156.25,795.8333333333334,-500,900" transform="matrix(1,0,0,1,0,544)" opacity="1.00"></path></g></svg>